<svg width="118" height="44" viewBox="0 0 118 44" fill="none" xmlns="http://www.w3.org/2000/svg">
<path d="M23.7812 34.7382C22.8037 34.7382 21.8663 34.3494 21.175 33.6574C20.4838 32.9655 20.0955 32.0269 20.0955 31.0483C20.0955 30.0697 20.4838 29.1312 21.175 28.4392C21.8663 27.7472 22.8037 27.3585 23.7812 27.3585C24.4651 27.376 25.1318 27.5757 25.7129 27.9371C26.2939 28.2985 26.7681 28.8084 27.0867 29.4144L30.3604 27.4555C29.9666 26.7431 29.4575 26.1011 28.8537 25.5556C27.5038 24.3637 25.7778 23.6857 23.9785 23.6408C22.6207 23.6314 21.286 23.9929 20.1182 24.6864C18.9503 25.3798 17.9934 26.379 17.3506 27.5763C17.2502 27.7669 15.4413 31.355 17.5417 34.8603C18.2137 35.9702 19.164 36.8849 20.2983 37.5135C21.4325 38.1421 22.7112 38.4628 24.0075 38.4438C25.3038 38.4248 26.5726 38.0667 27.688 37.4052C28.8033 36.7436 29.7265 35.8015 30.3658 34.6724L27.0745 32.7046C26.7541 33.3048 26.2805 33.8091 25.702 34.1663C25.1235 34.5236 24.4607 34.7209 23.7812 34.7382Z" fill="white"/>
<path d="M68.9983 34.8007C68.0208 34.8007 67.0833 34.4119 66.3921 33.72C65.7009 33.028 65.3126 32.0894 65.3126 31.1108C65.3126 30.1322 65.7009 29.1937 66.3921 28.5017C67.0833 27.8097 68.0208 27.421 68.9983 27.421C69.6821 27.4385 70.3489 27.6382 70.93 27.9996C71.511 28.361 71.9852 28.8709 72.3038 29.4769L75.5774 27.518C75.1837 26.8056 74.6746 26.1636 74.0708 25.6181C72.7209 24.4262 70.9949 23.7482 69.1956 23.7033C67.8378 23.6939 66.5031 24.0553 65.3352 24.7488C64.1673 25.4422 63.2105 26.4414 62.5676 27.6388C62.4673 27.8288 60.6577 31.4169 62.7588 34.9221C63.4308 36.032 64.3811 36.9467 65.5153 37.5753C66.6496 38.2039 67.9283 38.5246 69.2246 38.5056C70.5209 38.4866 71.7897 38.1286 72.9051 37.467C74.0204 36.8054 74.9436 35.8633 75.5829 34.7342L72.2916 32.7665C71.9712 33.3667 71.4977 33.8711 70.9192 34.2285C70.3407 34.5858 69.6779 34.7833 68.9983 34.8007Z" fill="white"/>
<path d="M7.55148 5.1909C6.15218 5.18895 4.7814 5.58676 3.60008 6.33761V0.109375H-0.000244141V19.9768H3.60008V18.8301C4.56765 19.4425 5.66421 19.8213 6.80315 19.9366C7.94209 20.0518 9.0922 19.9004 10.1626 19.4941C11.233 19.0879 12.1944 18.4381 12.9708 17.5959C13.7473 16.7538 14.3175 15.7424 14.6364 14.6418C14.9552 13.5411 15.0141 12.3813 14.8083 11.2539C14.6025 10.1266 14.1376 9.06258 13.4504 8.146C12.7633 7.22942 11.8726 6.48536 10.8488 5.97262C9.82507 5.45987 8.69622 5.19248 7.55148 5.19157V5.1909ZM7.55148 16.3025C6.82117 16.3025 6.10727 16.0857 5.50004 15.6795C4.89282 15.2733 4.41953 14.696 4.14006 14.0205C3.86058 13.3451 3.78745 12.6018 3.92993 11.8847C4.0724 11.1676 4.42408 10.509 4.94048 9.99197C5.45689 9.47498 6.11482 9.12291 6.8311 8.98028C7.54737 8.83764 8.28982 8.91084 8.96454 9.19063C9.63925 9.47042 10.2159 9.94423 10.6217 10.5521C11.0274 11.1601 11.244 11.8748 11.244 12.6059C11.244 13.5863 10.8549 14.5266 10.1625 15.2198C9.46999 15.9131 8.53079 16.3025 7.55148 16.3025Z" fill="white"/>
<path d="M38.7626 23.75C37.3023 23.7495 35.8746 24.1825 34.6601 24.9943C33.4457 25.8062 32.4989 26.9603 31.9397 28.3109C31.3805 29.6614 31.2339 31.1476 31.5185 32.5815C31.8031 34.0155 32.506 35.3327 33.5384 36.3667C34.5708 37.4006 35.8863 38.1049 37.3186 38.3903C38.7508 38.6757 40.2354 38.5295 41.5846 37.9701C42.9338 37.4108 44.0871 36.4634 44.8984 35.2479C45.7098 34.0323 46.1429 32.6032 46.1429 31.1412C46.1429 29.1814 45.3654 27.3019 43.9814 25.9158C42.5974 24.5298 40.7202 23.7507 38.7626 23.75ZM38.7626 34.8372C38.0324 34.8373 37.3186 34.6207 36.7114 34.2147C36.1042 33.8086 35.6309 33.2314 35.3514 32.5561C35.0718 31.8808 34.9986 31.1376 35.141 30.4206C35.2834 29.7036 35.6349 29.045 36.1512 28.528C36.6675 28.0111 37.3253 27.659 38.0415 27.5163C38.7576 27.3737 39.5 27.4468 40.1746 27.7266C40.8492 28.0063 41.4258 28.48 41.8315 29.0878C42.2372 29.6956 42.4538 30.4102 42.4538 31.1412C42.4538 32.1214 42.0649 33.0613 41.3727 33.7544C40.6805 34.4475 39.7416 34.837 38.7626 34.8372Z" fill="white"/>
<path d="M100.134 23.7344C98.7236 23.7322 97.342 24.1364 96.1544 24.8987V24.1198H92.5623V43.65H96.1544V37.3525C97.1204 37.9713 98.217 38.3564 99.3575 38.4772C100.498 38.598 101.651 38.4512 102.725 38.0484C103.799 37.6456 104.764 36.998 105.544 36.1567C106.325 35.3155 106.899 34.3039 107.221 33.202C107.543 32.1001 107.604 30.9383 107.4 29.8086C107.195 28.6789 106.731 27.6124 106.043 26.6936C105.355 25.7749 104.463 25.0291 103.438 24.5155C102.412 24.0018 101.281 23.7344 100.134 23.7344ZM100.134 34.8413C99.4041 34.8414 98.6902 34.6247 98.083 34.2187C97.4758 33.8126 97.0025 33.2354 96.723 32.56C96.4435 31.8846 96.3703 31.1414 96.5127 30.4244C96.6551 29.7074 97.0068 29.0488 97.5231 28.5319C98.0395 28.0149 98.6974 27.6629 99.4136 27.5203C100.13 27.3777 100.872 27.451 101.547 27.7308C102.221 28.0106 102.798 28.4845 103.204 29.0924C103.609 29.7003 103.826 30.4149 103.825 31.146C103.825 32.1257 103.437 33.0653 102.745 33.7582C102.053 34.4512 101.115 34.8407 100.136 34.8413H100.134Z" fill="white"/>
<path d="M40.5979 19.9948C42.1689 19.9969 43.6993 19.4951 44.9648 18.5631V19.9595H48.5569V5.68998H44.9648V6.64332C44.0241 5.95228 42.9333 5.49425 41.7816 5.30677C40.63 5.11929 39.4504 5.20771 38.3395 5.56476C37.2286 5.92181 36.218 6.53734 35.3906 7.36089C34.5632 8.18444 33.9426 9.19257 33.5795 10.3026C33.2164 11.4127 33.1213 12.5931 33.3019 13.7471C33.4825 14.9011 33.9337 15.9958 34.6185 16.9415C35.3033 17.8872 36.2022 18.6569 37.2416 19.1877C38.2809 19.7184 39.4311 19.995 40.5979 19.9948ZM40.5979 8.90757C41.3281 8.90757 42.0418 9.12434 42.649 9.53046C43.2561 9.93658 43.7292 10.5138 44.0087 11.1892C44.2881 11.8645 44.3612 12.6076 44.2188 13.3246C44.0763 14.0415 43.7247 14.7001 43.2084 15.217C42.6921 15.7339 42.0343 16.0859 41.3181 16.2285C40.602 16.3711 39.8597 16.2979 39.1851 16.0182C38.5105 15.7384 37.9339 15.2647 37.5283 14.6569C37.1226 14.0491 36.9061 13.3345 36.9061 12.6035C36.9061 11.6233 37.295 10.6832 37.9874 9.9901C38.6797 9.29697 39.6188 8.90757 40.5979 8.90757Z" fill="white"/>
<path d="M57.6059 19.9528C58.6189 19.953 59.6176 19.7133 60.5204 19.2532V19.9528H64.1125V5.69548H60.5204V13.4436C60.5204 14.2174 60.2133 14.9596 59.6667 15.5067C59.1202 16.0539 58.3789 16.3613 57.6059 16.3613C56.833 16.3613 56.0917 16.0539 55.5451 15.5067C54.9986 14.9596 54.6915 14.2174 54.6915 13.4436V5.69141H51.0994V13.4436C51.0994 13.4681 51.0994 13.4925 51.0994 13.5169C51.1279 15.2284 51.825 16.8606 53.0413 18.0636C54.2575 19.2667 55.8962 19.9449 57.6059 19.9528Z" fill="white"/>
<path d="M68.568 16.3578C68.5677 17.2963 68.9339 18.1977 69.5883 18.8696C70.2427 19.5415 71.1336 19.9306 72.0707 19.954H75.5836V16.4372H73.4744C73.1262 16.4372 72.7923 16.2987 72.5461 16.0522C72.2999 15.8058 72.1615 15.4715 72.1615 15.1229V9.16469H75.3118V5.69469H72.1615V1.78906L68.5694 2.87471V5.69197H66.1443V9.16198H68.5694L68.568 16.3578Z" fill="white"/>
<path d="M115.888 35.0636C115.54 35.0636 115.206 34.9252 114.96 34.6788C114.714 34.4324 114.576 34.0983 114.576 33.7499V27.789H117.725V24.3197H114.576V20.4141L110.983 21.4997V24.3177H108.558V27.787H110.983V34.9794C110.983 35.918 111.349 36.8195 112.004 37.4914C112.659 38.1633 113.55 38.5524 114.487 38.5756H114.578H118V35.0588L115.888 35.0636Z" fill="white"/>
<path d="M54.1066 23.7188C53.0801 23.7172 52.0685 23.9647 51.1583 24.44V23.7188H47.5662V38.4531H51.1583V30.0976C51.1544 29.6936 51.2309 29.2929 51.3834 28.9188C51.5358 28.5448 51.7611 28.2048 52.0462 27.9189C52.6059 27.3938 53.3398 27.0946 54.1066 27.0788C54.4942 27.0789 54.8779 27.1555 55.2359 27.3041C55.594 27.4527 55.9192 27.6704 56.1931 27.9449C56.4671 28.2194 56.6843 28.5452 56.8324 28.9037C56.9805 29.2623 57.0566 29.6465 57.0563 30.0345C57.0563 30.0569 57.0563 30.078 57.0563 30.1024L57.0746 38.4646H60.5095L60.4831 29.7604C60.3935 28.1281 59.6826 26.5921 58.4966 25.4684C57.3106 24.3447 55.7396 23.7185 54.1066 23.7188Z" fill="white"/>
<path d="M24.2209 5.03125C22.9309 5.03126 21.6627 5.3648 20.5393 5.99953C19.4159 6.63427 18.4752 7.5487 17.8084 8.65425C17.1417 9.7598 16.7714 11.019 16.7335 12.3099C16.6955 13.6008 16.9912 14.8796 17.5919 16.0225C18.1927 17.1653 19.078 18.1335 20.1622 18.8333C21.2464 19.533 22.4928 19.9406 23.7806 20.0165C25.0683 20.0925 26.3538 19.8342 27.5126 19.2667C28.6714 18.6992 29.6641 17.8417 30.3947 16.7773L27.161 14.9086C26.6743 15.4822 26.0365 15.9075 25.3202 16.1361C24.9642 16.2431 24.5946 16.2982 24.2229 16.2996C23.5032 16.2996 22.7986 16.0921 22.1937 15.7017C21.5887 15.3113 21.1089 14.7547 20.8117 14.0985H31.5469C31.7796 13.0053 31.7654 11.8739 31.5054 10.7869C31.2454 9.69987 30.746 8.68477 30.0439 7.81574C29.3417 6.94671 28.4545 6.2457 27.4471 5.76395C26.4396 5.2822 25.3374 5.03187 24.2209 5.03125ZM20.6734 11.3518C20.9238 10.6081 21.401 9.96179 22.0377 9.50398C22.6745 9.04617 23.4386 8.79991 24.2226 8.79991C25.0065 8.79991 25.7707 9.04617 26.4074 9.50398C27.0441 9.96179 27.5213 10.6081 27.7717 11.3518H20.6734Z" fill="white"/>
<path d="M83.6427 5.10938C82.3527 5.10939 81.0846 5.44292 79.9612 6.07765C78.8377 6.71239 77.8971 7.62682 77.2303 8.73237C76.5635 9.83792 76.1933 11.0971 76.1553 12.388C76.1174 13.6789 76.4131 14.9577 77.0138 16.1006C77.6145 17.2435 78.4999 18.2117 79.5841 18.9114C80.6683 19.6112 81.9146 20.0187 83.2024 20.0947C84.4902 20.1706 85.7757 19.9123 86.9345 19.3448C88.0932 18.7773 89.086 17.9198 89.8166 16.8554L86.5829 14.9868C86.0961 15.5603 85.4583 15.9856 84.7421 16.2142C84.3861 16.3213 84.0165 16.3766 83.6448 16.3784C82.925 16.3785 82.2205 16.1709 81.6155 15.7805C81.0106 15.3901 80.5308 14.8335 80.2335 14.1773H90.9688C91.2016 13.084 91.1875 11.9525 90.9275 10.8655C90.6675 9.77838 90.1682 8.76319 89.466 7.89408C88.7639 7.02497 87.8766 6.32389 86.8691 5.8421C85.8616 5.36031 84.7593 5.10997 83.6427 5.10938ZM80.098 11.4306C80.3484 10.6869 80.8256 10.0406 81.4623 9.58278C82.099 9.12497 82.8632 8.87872 83.6471 8.87872C84.4311 8.87872 85.1952 9.12497 85.832 9.58278C86.4687 10.0406 86.9459 10.6869 87.1963 11.4306H80.098Z" fill="white"/>
<path d="M83.747 23.7031C82.4731 23.7037 81.2209 24.0335 80.1116 24.6607C79.0024 25.2879 78.0737 26.1912 77.4156 27.2831C76.7574 28.3751 76.392 29.6187 76.3547 30.8935C76.3175 32.1683 76.6097 33.4311 77.203 34.5597C77.7963 35.6883 78.6707 36.6444 79.7414 37.3354C80.8121 38.0264 82.0429 38.4289 83.3146 38.504C84.5863 38.579 85.8559 38.3241 87.0003 37.7638C88.1447 37.2036 89.1252 36.357 89.8469 35.306L86.6526 33.4604C86.172 34.0273 85.5419 34.4475 84.8341 34.6729C84.4823 34.7788 84.1171 34.8334 83.7497 34.8351C83.0391 34.8353 82.3436 34.6306 81.7461 34.2456C81.1486 33.8605 80.6745 33.3114 80.3805 32.6638H90.9842C91.2143 31.584 91.2004 30.4664 90.9436 29.3927C90.6868 28.3189 90.1936 27.3162 89.5001 26.4577C88.8066 25.5993 87.9302 24.9068 86.9351 24.4309C85.94 23.9551 84.8512 23.7078 83.7483 23.7072L83.747 23.7031ZM80.2429 29.9456C80.4904 29.2112 80.9619 28.573 81.5908 28.1209C82.2197 27.6689 82.9744 27.4257 83.7487 27.4257C84.5229 27.4257 85.2777 27.6689 85.9066 28.1209C86.5355 28.573 87.0069 29.2112 87.2544 29.9456H80.2429Z" fill="white"/>
<path d="M87.7112 0H83.3911L81.1619 3.82285H84.6185L87.7112 0Z" fill="white"/>
</svg>
